<?xml version="1.0" encoding="utf-8"?>
<!-- Generator: Adobe Illustrator 16.2.0, SVG Export Plug-In . SVG Version: 6.00 Build 0)  -->
<!DOCTYPE svg PUBLIC "-//W3C//DTD SVG 1.1//EN" "http://www.w3.org/Graphics/SVG/1.1/DTD/svg11.dtd">
<svg version="1.1" id="Layer_1" xmlns="http://www.w3.org/2000/svg" xmlns:xlink="http://www.w3.org/1999/xlink" x="0px" y="0px"
	 width="460px" height="374.363px" viewBox="0 0 460 374.363" enable-background="new 0 0 460 374.363" xml:space="preserve">
<g>
	<g>
		<linearGradient id="SVGID_1_" gradientUnits="userSpaceOnUse" x1="292.1699" y1="121.4717" x2="408.1816" y2="121.4717">
			<stop  offset="0" style="stop-color:#63846B"/>
			<stop  offset="1" style="stop-color:#001608"/>
		</linearGradient>
		<path fill="url(#SVGID_1_)" stroke="#000000" stroke-width="2" stroke-miterlimit="10" d="M372.178,169.758
			c-13.468,1.821-26.818,4.467-40.004,7.75c-13.5,3.363-26.763,7.426-40.004,11.678c0-19.334,0-38.668,0-58.002
			c0-19.333,0-38.667,0-58.001c13.241-4.25,26.503-8.313,40.004-11.674c13.188-3.28,26.535-5.931,40.004-7.75
			c12.296,18.291,24.286,36.757,36.004,55.424C395.821,129.162,383.906,149.402,372.178,169.758z"/>
		<linearGradient id="SVGID_2_" gradientUnits="userSpaceOnUse" x1="8.1812" y1="191.0518" x2="88.1904" y2="191.0518">
			<stop  offset="0" style="stop-color:#CCEFCC"/>
			<stop  offset="1" style="stop-color:#88BC96"/>
		</linearGradient>
		<path fill="url(#SVGID_2_)" stroke="#000000" stroke-width="2" stroke-miterlimit="10" d="M88.189,243.292
			c-13.185,3.43-26.53,6.251-40.004,8.278c-13.239,1.991-26.614,3.13-40.004,3.242c13.72-20.17,27.01-40.596,40.003-61.241
			c-13.708-17.994-27.027-36.23-40.004-54.759c13.391-0.11,26.765-1.252,40.004-3.242c13.474-2.022,26.82-4.849,40.004-8.279
			c0,19.333,0,38.666,0.001,57.999C88.19,204.624,88.191,223.958,88.189,243.292z"/>
		<linearGradient id="SVGID_3_" gradientUnits="userSpaceOnUse" x1="48.1855" y1="154.7168" x2="348.1758" y2="154.7168">
			<stop  offset="0" style="stop-color:#88BC96"/>
			<stop  offset="1" style="stop-color:#63846B"/>
		</linearGradient>
		<path display="none" fill="url(#SVGID_3_)" stroke="#000000" stroke-width="2" stroke-miterlimit="10" d="M348.176,163.867
			c-103.159,23.027-195.373,80.063-299.99,97.701c0-38.666,0-77.331,0-115.997c104.617-17.646,196.83-74.678,299.99-97.705
			C348.176,86.533,348.176,125.2,348.176,163.867z"/>
		<linearGradient id="SVGID_4_" gradientUnits="userSpaceOnUse" x1="48.1855" y1="136.4316" x2="88.1895" y2="136.4316">
			<stop  offset="0" style="stop-color:#FFFFFF"/>
			<stop  offset="1" style="stop-color:#000000"/>
		</linearGradient>
		<path fill="url(#SVGID_4_)" stroke="#000000" stroke-width="2" stroke-miterlimit="10" d="M88.189,127.291
			c-13.176,6.538-26.422,12.632-40.004,18.28"/>
		<linearGradient id="SVGID_5_" gradientUnits="userSpaceOnUse" x1="292.1699" y1="176.5264" x2="348.1758" y2="176.5264">
			<stop  offset="0" style="stop-color:#FFFFFF"/>
			<stop  offset="1" style="stop-color:#000000"/>
		</linearGradient>
		<path fill="url(#SVGID_5_)" stroke="#000000" stroke-width="2" stroke-miterlimit="10" d="M348.176,163.867
			c-19.154,7.38-37.658,16.145-56.006,25.318"/>
	</g>
	<g>
	</g>
</g>
<radialGradient id="SVGID_6_" cx="292.2275" cy="7.7896" r="292.127" fx="331.4748" fy="-10.928" gradientTransform="matrix(1 0 0 1.2742 0 0)" gradientUnits="userSpaceOnUse">
	<stop  offset="0" style="stop-color:#9C9C9C"/>
	<stop  offset="1" style="stop-color:#454545"/>
</radialGradient>
<rect x="77" fill="url(#SVGID_6_)" stroke="#88BC96" stroke-width="2" stroke-miterlimit="10" width="225" height="346"/>
<g>
	<g>
		<linearGradient id="SVGID_7_" gradientUnits="userSpaceOnUse" x1="292.1699" y1="121.4717" x2="408.1816" y2="121.4717">
			<stop  offset="0" style="stop-color:#63846B"/>
			<stop  offset="1" style="stop-color:#001608"/>
		</linearGradient>
		<path display="none" fill="url(#SVGID_7_)" stroke="#000000" stroke-width="2" stroke-miterlimit="10" d="M372.178,169.76
			c-13.469,1.817-26.818,4.465-40.004,7.75c-13.501,3.359-26.764,7.423-40.004,11.676c0-19.334,0-38.668,0-58.002
			c0-19.333,0-38.666,0-57.999c13.241-4.252,26.503-8.315,40.004-11.676c13.186-3.284,26.536-5.931,40.004-7.75
			c12.297,18.291,24.287,36.757,36.004,55.424C395.817,129.16,383.904,149.402,372.178,169.76z"/>
		<linearGradient id="SVGID_8_" gradientUnits="userSpaceOnUse" x1="8.1812" y1="191.0518" x2="88.1904" y2="191.0518">
			<stop  offset="0" style="stop-color:#CCEFCC"/>
			<stop  offset="1" style="stop-color:#88BC96"/>
		</linearGradient>
		<path display="none" fill="url(#SVGID_8_)" stroke="#000000" stroke-width="2" stroke-miterlimit="10" d="M88.189,243.291
			c-13.184,3.431-26.53,6.257-40.004,8.279c-13.239,1.989-26.614,3.129-40.004,3.242c13.721-20.171,27.012-40.595,40.004-61.242
			c-13.71-17.992-27.029-36.229-40.004-54.76c13.392-0.114,26.763-1.256,40.004-3.24c13.473-2.023,26.821-4.848,40.004-8.279
			c0,19.333,0,38.667,0.001,58C88.19,204.624,88.189,223.958,88.189,243.291z"/>
		<linearGradient id="SVGID_9_" gradientUnits="userSpaceOnUse" x1="48.1846" y1="154.7178" x2="348.1758" y2="154.7178">
			<stop  offset="0" style="stop-color:#88BC96"/>
			<stop  offset="1" style="stop-color:#63846B"/>
		</linearGradient>
		<path fill="url(#SVGID_9_)" stroke="#000000" stroke-width="2" stroke-miterlimit="10" d="M348.176,163.867
			c-103.163,23.012-195.37,80.073-299.99,97.701c-0.001-38.665,0-77.331,0-115.996c104.616-17.652,196.832-74.674,299.991-97.706
			C348.176,86.534,348.176,125.2,348.176,163.867z"/>
		<linearGradient id="SVGID_10_" gradientUnits="userSpaceOnUse" x1="48.1851" y1="136.4316" x2="88.1895" y2="136.4316">
			<stop  offset="0" style="stop-color:#FFFFFF"/>
			<stop  offset="1" style="stop-color:#000000"/>
		</linearGradient>
		<path display="none" fill="url(#SVGID_10_)" stroke="#000000" stroke-width="2" stroke-miterlimit="10" d="M88.189,127.291
			c-13.175,6.539-26.423,12.633-40.004,18.281"/>
		<linearGradient id="SVGID_11_" gradientUnits="userSpaceOnUse" x1="292.1699" y1="176.5264" x2="348.1758" y2="176.5264">
			<stop  offset="0" style="stop-color:#FFFFFF"/>
			<stop  offset="1" style="stop-color:#000000"/>
		</linearGradient>
		<path display="none" fill="url(#SVGID_11_)" stroke="#000000" stroke-width="2" stroke-miterlimit="10" d="M348.176,163.867
			c-19.154,7.379-37.66,16.144-56.006,25.318"/>
	</g>
	<g>
		<path fill="#F8F3EA" stroke="#2F4234" stroke-width="0.5" stroke-miterlimit="10" d="M80.794,225.092
			c1.633-0.42,3.024-1.063,4.08-1.969c1.055-0.904,1.873-1.929,2.449-3.069c0.576-1.141,0.959-2.346,1.151-3.612
			c0.192-1.265,0.253-2.498,0.191-3.697c-0.131-2.523-0.769-4.485-1.92-5.887c-1.152-1.399-2.338-2.591-3.553-3.571
			c-5.185-3.94-7.776-5.951-12.96-10.065c-1.985-1.495-3.695-3.412-5.135-5.75c-1.44-2.337-2.16-5.146-2.16-8.41
			c0-2.56,0.447-4.901,1.344-7.031c0.896-2.128,2.128-4.004,3.697-5.643c1.567-1.637,3.438-3.014,5.615-4.139
			c2.175-1.124,4.577-1.996,7.202-2.63c5.185-1.252,9.41-1.293,12.673-0.021s5.311,4.184,6.144,8.779
			c-4.417,1.259-6.625,1.866-11.041,3.016c-0.321-1.937-1.151-3.121-2.495-3.561c-1.344-0.44-3.125-0.318-5.279,0.232
			c-1.385,0.354-2.563,0.865-3.458,1.585c-0.897,0.722-1.601,1.493-2.112,2.312c-0.513,0.821-0.848,1.662-1.007,2.528
			c-0.16,0.867-0.24,1.626-0.24,2.266c0,0.448,0.033,0.871,0.097,1.271c0.063,0.402,0.289,0.868,0.674,1.389
			c0.386,0.521,0.964,1.155,1.734,1.904c0.771,0.75,1.864,1.714,3.277,2.88s3.213,2.57,5.396,4.194
			c2.184,1.625,4.883,3.599,8.093,5.854c2.498,1.755,4.383,3.927,5.636,6.547c1.252,2.621,1.853,5.515,1.783,8.66
			c-0.059,2.638-0.544,5.228-1.443,7.754c-0.898,2.529-2.2,4.88-3.899,7.044c-1.701,2.164-3.769,4.072-6.207,5.701
			c-2.439,1.63-5.198,2.825-8.277,3.569c-2.632,0.636-5.054,0.923-7.268,0.873s-4.155-0.486-5.823-1.293
			c-1.668-0.806-2.968-2.033-3.898-3.675c-0.93-1.642-1.397-3.776-1.397-6.401c4.417-0.849,6.625-1.312,11.042-2.295
			c0,0.038,0,0.06,0,0.098c0,2.177,0.707,3.573,2.114,4.18C77.017,225.616,78.768,225.613,80.794,225.092z"/>
		<path fill="#F8F3EA" stroke="#2F4234" stroke-width="0.5" stroke-miterlimit="10" d="M111.698,224.401
			c-3.091,0.957-4.636,1.424-7.728,2.333c-0.002-16.935-0.001-33.87-0.001-50.805c3.091-0.909,4.637-1.375,7.729-2.332
			C111.698,190.532,111.695,207.467,111.698,224.401z"/>
		<path fill="#F8F3EA" stroke="#2F4234" stroke-width="0.5" stroke-miterlimit="10" d="M115.26,172.483
			c5.86-1.853,8.79-2.819,14.65-4.816c1.792-0.61,3.497-0.853,5.109-0.72c1.612,0.133,3.014,0.569,4.2,1.313
			c1.186,0.744,2.127,1.796,2.822,3.16c0.694,1.364,1.041,2.942,1.041,4.733c0,9.838,0,14.76,0,24.598
			c0,1.837-0.348,3.677-1.042,5.514c-0.694,1.838-1.635,3.553-2.821,5.137c-1.188,1.586-2.588,3.008-4.201,4.265
			c-1.613,1.256-3.317,2.194-5.108,2.805c-5.86,1.997-8.789,2.964-14.649,4.816C115.261,206.354,115.262,189.418,115.26,172.483z
			 M135.355,177.549c-0.045-1.463-0.596-2.536-1.648-3.225c-1.053-0.688-2.318-0.78-3.797-0.276
			c-2.769,0.943-4.153,1.406-6.922,2.319c-0.001,12.68-0.001,25.359,0,38.039c2.769-0.913,4.152-1.377,6.921-2.32
			c1.479-0.504,2.743-1.465,3.796-2.883c1.052-1.417,1.604-2.875,1.649-4.369C135.355,193.921,135.355,188.462,135.355,177.549z"/>
		<path fill="#F8F3EA" stroke="#2F4234" stroke-width="0.5" stroke-miterlimit="10" d="M168.95,175.634c0,3.092,0,4.637,0,7.729
			c-6.074,2.343-9.11,3.498-15.184,5.756c0,5.241,0,7.862,0,13.104c7.444-2.768,11.165-4.191,18.609-7.081c0,3.092,0,4.637,0,7.729
			c-8.744,3.399-17.52,6.715-26.336,9.921c0-16.935-0.001-33.87,0-50.805c8.817-3.204,17.593-6.521,26.337-9.92
			c0,3.091-0.001,4.635-0.001,7.726c-7.444,2.89-11.165,4.315-18.609,7.083c0,5.806,0.001,8.71,0.001,14.516
			C159.84,179.132,162.876,177.977,168.95,175.634z"/>
		<path fill="#F8F3EA" stroke="#2F4234" stroke-width="0.5" stroke-miterlimit="10" d="M207.168,198.485
			c-1.919-0.321-3.648-0.971-5.183-1.955c-1.536-0.984-3.505-3.337-4.127-3.439c-0.195-0.032-0.882,0.466-1.296,0.663
			c-0.416,0.198-0.849,0.388-1.296,0.566c-2.625,1.047-5.071,1.523-7.342,1.432c-2.272-0.091-4.24-0.642-5.903-1.65
			c-1.663-1.008-2.991-2.458-3.982-4.341c-0.991-1.881-1.488-4.134-1.488-6.759c0-12.129,0-24.259,0-36.388
			c0-2.56,0.497-5.184,1.488-7.876c0.992-2.691,2.319-5.199,3.982-7.52c1.664-2.318,3.631-4.421,5.903-6.314
			c2.271-1.893,4.717-3.362,7.342-4.409c2.559-1.021,4.992-1.498,7.296-1.429c2.303,0.07,4.305,0.596,5.999,1.58
			c1.693,0.983,3.037,2.431,4.03,4.338c0.992,1.906,1.489,4.14,1.489,6.699c-0.001,12.129-0.002,24.258,0,36.387
			c-0.064,3.035-0.737,6.087-2.016,9.157c-1.281,3.073-5.262,7.767-5.184,8.412c0.042,0.35,2.192,1.443,3.312,1.986
			c1.118,0.542,2.318,0.911,3.6,1.104C211.142,192.631,209.817,194.583,207.168,198.485z M203.041,133.223
			c-0.064-2.087-0.85-3.578-2.353-4.479c-1.503-0.902-3.31-0.932-5.422-0.089c-2.175,0.868-4,2.345-5.472,4.434
			c-1.472,2.089-2.207,4.188-2.207,6.3c0,14.049,0,28.097,0,42.146c0,1.856,0.544,3.259,1.631,4.202s4.051,1.146,4.127,0.996
			c0.063-0.125-0.624-1.238-0.912-1.797c-0.287-0.558-0.465-1.132-0.624-1.527c-0.178-0.443-0.417-0.921-0.479-1.345
			c2.496-2.605,3.744-3.907,6.239-6.518c0.319,0.448,0.696,0.95,1.056,1.496c0.324,0.491,0.706,1.078,1.152,1.698
			s1.531,1.905,1.631,1.892c0.42-0.058,1.567-3.57,1.632-5.26C203.041,161.321,203.041,147.272,203.041,133.223z"/>
		<path fill="#F8F3EA" stroke="#2F4234" stroke-width="0.5" stroke-miterlimit="10" d="M236.461,126.616
			c3.09-1.213,4.635-1.814,7.725-3.012c0,12.678,0,25.356,0,38.034c0,1.837-0.348,3.687-1.041,5.545
			c-0.694,1.859-1.634,3.604-2.821,5.231c-1.188,1.628-2.587,3.104-4.198,4.432c-1.613,1.328-3.316,2.343-5.107,3.051
			c-1.838,0.727-3.55,1.063-5.14,1.001c-1.59-0.062-2.967-0.446-4.131-1.146c-1.164-0.7-2.095-1.708-2.79-3.021
			c-0.695-1.312-1.041-2.888-1.041-4.725c0-12.679,0-25.357,0-38.036c3.09-1.234,4.635-1.851,7.726-3.079
			c0,13.351,0.002,26.7,0.001,40.051c0,1.479,0.515,2.539,1.545,3.183c1.029,0.644,2.305,0.664,3.828,0.062
			c1.479-0.584,2.745-1.606,3.798-3.073c1.051-1.466,1.602-2.948,1.646-4.444C236.461,153.318,236.461,139.968,236.461,126.616z"/>
		<path fill="#F8F3EA" stroke="#2F4234" stroke-width="0.5" stroke-miterlimit="10" d="M270.12,136.096c0,3.092,0,4.637,0,7.729
			c-6.074,2.2-9.11,3.33-15.185,5.63c0,5.241,0,7.864,0,13.105c7.444-2.819,11.164-4.2,18.608-6.865
			c0,3.092,0.001,4.637,0.001,7.729c-8.819,3.16-17.595,6.443-26.335,9.817c0-16.935-0.001-33.87-0.001-50.805
			c8.741-3.371,17.517-6.655,26.336-9.817c0,3.091,0,4.636,0,7.727c-7.444,2.665-11.165,4.046-18.609,6.865c0,5.806,0,8.71,0,14.516
			C261.01,139.427,264.046,138.296,270.12,136.096z"/>
		<path fill="#F8F3EA" stroke="#2F4234" stroke-width="0.5" stroke-miterlimit="10" d="M289.072,152.523
			c1.143-0.401,2.115-0.933,2.855-1.626c0.738-0.691,1.31-1.452,1.713-2.278c0.402-0.825,0.672-1.687,0.807-2.582
			c0.135-0.894,0.179-1.76,0.135-2.596c-0.092-1.76-0.537-3.108-1.344-4.031s-1.637-1.686-2.486-2.299
			c-3.629-2.448-5.446-3.66-9.075-6.058c-1.389-0.862-2.587-2.031-3.595-3.514s-1.512-3.364-1.512-5.649
			c0-1.791,0.313-3.482,0.941-5.071c0.627-1.587,1.489-3.033,2.587-4.334s2.408-2.44,3.932-3.412
			c1.523-0.97,3.204-1.766,5.042-2.382c3.629-1.217,6.584-1.421,8.869-0.643c2.285,0.779,3.72,2.78,4.302,5.982
			c-3.091,0.966-4.637,1.46-7.728,2.469c-0.227-1.341-0.807-2.132-1.748-2.369s-2.187-0.053-3.695,0.475
			c-0.97,0.339-1.793,0.782-2.42,1.353c-0.629,0.573-1.122,1.167-1.479,1.782c-0.359,0.617-0.595,1.235-0.707,1.854
			c-0.112,0.62-0.166,1.153-0.166,1.601c0,0.314,0.023,0.611,0.068,0.887s0.201,0.579,0.471,0.911s0.678,0.735,1.217,1.2
			s1.304,1.061,2.292,1.779s2.248,1.587,3.775,2.604c1.529,1.018,3.42,2.267,5.666,3.733c1.748,1.141,3.068,2.617,3.944,4.425
			s1.296,3.825,1.248,6.028c-0.04,1.847-0.381,3.667-1.01,5.454s-1.54,3.463-2.729,5.028c-1.189,1.566-2.639,2.973-4.344,4.222
			c-1.707,1.251-3.639,2.233-5.795,2.957c-1.842,0.618-3.54,1.003-5.089,1.155c-1.551,0.151-2.906,0.028-4.074-0.37
			s-2.079-1.116-2.729-2.164c-0.65-1.047-0.977-2.488-0.977-4.326c3.092-1.096,4.636-1.634,7.728-2.695c0,0.027,0,0.038,0,0.065
			c0,1.523,0.496,2.442,1.48,2.755C286.426,153.156,287.649,153.022,289.072,152.523z"/>
		<path fill="#F8F3EA" stroke="#2F4234" stroke-width="0.5" stroke-miterlimit="10" d="M332.486,94.445c0,3.091,0,4.635,0,7.726
			c-4.301,1.063-6.454,1.625-10.755,2.797c0,14.358,0,28.718,0,43.076c-3.092,0.843-4.636,1.278-7.728,2.173
			c0-14.358,0-28.717,0-43.075c-4.22,1.221-6.33,1.854-10.55,3.164c0-3.091,0-4.634,0-7.725
			C313.052,99.594,322.73,96.866,332.486,94.445z"/>
	</g>
</g>
<g>
</g>
<g>
</g>
<g>
</g>
<g>
</g>
<g>
</g>
<g>
</g>
<g>
</g>
<g>
</g>
<g>
</g>
<g>
</g>
<g>
</g>
<g>
</g>
<g>
</g>
<g>
</g>
<g>
</g>
</svg>
